<mxfile host="app.diagrams.net" modified="2024-02-14T14:27:37.586Z" agent="Mozilla/5.0 (Windows NT 10.0; Win64; x64) AppleWebKit/537.36 (KHTML, like Gecko) Chrome/121.0.0.0 Safari/537.36" etag="BjTQhlgMryHOsXf3y9oX" version="23.1.4" type="github">
  <diagram name="Page-1" id="b5b7bab2-c9e2-2cf4-8b2a-24fd1a2a6d21">
    <mxGraphModel dx="880" dy="434" grid="1" gridSize="10" guides="1" tooltips="1" connect="1" arrows="1" fold="1" page="1" pageScale="1" pageWidth="827" pageHeight="1169" background="none" math="0" shadow="0">
      <root>
        <mxCell id="0" />
        <mxCell id="1" parent="0" />
        <mxCell id="WBmlx5njleUxWuL3J4BN-15" value="user" style="shape=process;whiteSpace=wrap;html=1;backgroundOutline=1;" vertex="1" parent="1">
          <mxGeometry x="130" y="80" width="180" height="60" as="geometry" />
        </mxCell>
        <mxCell id="WBmlx5njleUxWuL3J4BN-16" value="product" style="shape=process;whiteSpace=wrap;html=1;backgroundOutline=1;" vertex="1" parent="1">
          <mxGeometry x="400" y="90" width="180" height="60" as="geometry" />
        </mxCell>
        <mxCell id="WBmlx5njleUxWuL3J4BN-17" value="cart" style="shape=process;whiteSpace=wrap;html=1;backgroundOutline=1;" vertex="1" parent="1">
          <mxGeometry x="660" y="90" width="150" height="60" as="geometry" />
        </mxCell>
        <mxCell id="WBmlx5njleUxWuL3J4BN-18" value="1-----m" style="shape=link;html=1;rounded=0;entryX=-0.006;entryY=0.4;entryDx=0;entryDy=0;entryPerimeter=0;width=28;" edge="1" parent="1" target="WBmlx5njleUxWuL3J4BN-16">
          <mxGeometry width="100" relative="1" as="geometry">
            <mxPoint x="310" y="119.5" as="sourcePoint" />
            <mxPoint x="410" y="119.5" as="targetPoint" />
            <Array as="points">
              <mxPoint x="390" y="120" />
            </Array>
          </mxGeometry>
        </mxCell>
        <mxCell id="WBmlx5njleUxWuL3J4BN-19" value="m-------1" style="shape=link;html=1;rounded=0;exitX=0.994;exitY=0.617;exitDx=0;exitDy=0;exitPerimeter=0;width=17;entryX=-0.007;entryY=0.633;entryDx=0;entryDy=0;entryPerimeter=0;" edge="1" parent="1" source="WBmlx5njleUxWuL3J4BN-16" target="WBmlx5njleUxWuL3J4BN-17">
          <mxGeometry width="100" relative="1" as="geometry">
            <mxPoint x="580" y="140" as="sourcePoint" />
            <mxPoint x="640" y="127" as="targetPoint" />
            <Array as="points">
              <mxPoint x="610" y="130" />
            </Array>
          </mxGeometry>
        </mxCell>
        <mxCell id="WBmlx5njleUxWuL3J4BN-22" value="pk-------ID&lt;br&gt;fk------ID&lt;br&gt;&lt;br&gt;&lt;br&gt;&lt;br&gt;&lt;br&gt;name&lt;br&gt;email&lt;br&gt;password&lt;br&gt;role" style="shape=internalStorage;whiteSpace=wrap;html=1;backgroundOutline=1;" vertex="1" parent="1">
          <mxGeometry x="130" y="140" width="180" height="250" as="geometry" />
        </mxCell>
        <mxCell id="WBmlx5njleUxWuL3J4BN-28" value="pk----------ID&lt;br&gt;Fk--------ID&lt;br&gt;&lt;br&gt;&lt;br&gt;&lt;br&gt;&lt;br&gt;&lt;br&gt;name&amp;nbsp;&lt;br&gt;description&lt;br&gt;quantity&lt;br&gt;price&lt;br&gt;status" style="shape=internalStorage;whiteSpace=wrap;html=1;backgroundOutline=1;" vertex="1" parent="1">
          <mxGeometry x="400" y="150" width="190" height="240" as="geometry" />
        </mxCell>
        <mxCell id="WBmlx5njleUxWuL3J4BN-29" value="pk--------ID&lt;br&gt;FK-----ID&lt;br&gt;&lt;br&gt;&lt;br&gt;&lt;br&gt;&lt;br&gt;name&lt;br&gt;description&lt;br&gt;quantity&lt;br&gt;price&lt;br&gt;status" style="shape=internalStorage;whiteSpace=wrap;html=1;backgroundOutline=1;" vertex="1" parent="1">
          <mxGeometry x="660" y="150" width="150" height="240" as="geometry" />
        </mxCell>
      </root>
    </mxGraphModel>
  </diagram>
</mxfile>
